<svg width="37" height="38" viewBox="0 0 37 38" fill="none" xmlns="http://www.w3.org/2000/svg">
<g clip-path="url(#clip0_10_443)">
<path d="M31.8596 3.19385H28.7748V0.109375H26.7195V3.19385H10.2768V0.109375H8.22148V3.19385H5.1402C2.30728 3.19385 0 5.49905 0 8.33362V31.9696C0 34.8023 2.3054 37.1094 5.1402 37.1094H31.8598C34.6927 37.1094 37 34.8042 37 31.9696L36.9983 13.4699V8.3301C36.9966 5.49743 34.6912 3.19385 31.8598 3.19385H31.8596ZM34.9408 31.9661C34.9408 33.6651 33.5587 35.0471 31.8596 35.0471H5.13998C3.43749 35.0471 2.05525 33.6651 2.05525 31.9661V13.4695H34.9406L34.9408 31.9661ZM34.9408 11.4145H2.05547V8.33002C2.05547 6.62938 3.43766 5.24554 5.1402 5.24554H8.22494V7.3007H10.2769V5.24896H26.7195V7.30412H28.7749V5.24896H31.8596C33.5587 5.24896 34.9409 6.62934 34.9409 8.32998L34.9408 11.4145Z" fill="white"/>
<path fill-rule="evenodd" clip-rule="evenodd" d="M11.2318 20.3416C11.2318 20.3416 10.9167 19.3968 11.0213 18.8718C11.0739 18.2943 11.3364 17.9796 11.3364 17.9796L12.9124 16.1951C12.9124 16.1951 13.3328 15.8804 13.911 16.4572C14.4366 17.0873 16.2232 19.0289 16.2232 19.0289C16.2232 19.0289 16.8541 19.659 16.2759 20.2884C15.6976 20.9185 15.1727 21.4953 15.1727 21.4953C15.1727 21.4953 15.0148 21.6005 15.3832 22.2299C15.6457 22.7549 18.3255 25.4309 18.8511 25.7463C19.482 26.061 19.5866 25.9566 19.5866 25.9566C19.5866 25.9566 20.1648 25.4316 20.8476 24.8547C21.4784 24.2246 22.0559 24.8547 22.0559 24.8547C22.0559 24.8547 24.0523 26.6918 24.6306 27.2161C25.2615 27.7411 24.8931 28.2135 24.8931 28.2135L23.1591 29.7352C23.1591 29.7352 22.7914 29.9973 22.2658 30.1024C21.6876 30.155 20.7423 29.8922 20.7423 29.8922C17.2744 28.7378 12.3355 23.8041 11.2318 20.3403V20.3416Z" fill="white"/>
</g>
<defs>
<clipPath id="clip0_10_443">
<rect width="37" height="37" fill="white" transform="translate(0 0.109375)"/>
</clipPath>
</defs>
</svg>
