<svg width="130" height="101" viewBox="0 0 130 101" fill="none" xmlns="http://www.w3.org/2000/svg">
<g clip-path="url(#clip0_10_219)">
<path d="M89.5 40.1467C89.5 23.5782 76.0685 10.1467 59.5 10.1467C42.9315 10.1467 29.5 23.5782 29.5 40.1467H89.5Z" fill="#63EC9A"/>
<path d="M35.0001 62.1464C34.9602 78.7149 48.3593 92.1787 64.9278 92.2186C81.4962 92.2584 94.96 78.8593 94.9999 62.2909L35.0001 62.1464Z" fill="#63EC9A"/>
<path d="M64.5 40.2188C70.5709 40.2188 75.5 45.1479 75.5 51.2188C75.5 57.2896 70.5709 62.2188 64.5 62.2188C58.4291 62.2188 53.5 57.2896 53.5 51.2188C53.5 45.1479 58.4291 40.2188 64.5 40.2188Z" fill="#FFD526"/>
</g>
<defs>
<clipPath id="clip0_10_219">
<rect width="130" height="100" fill="white" transform="translate(0 0.21875)"/>
</clipPath>
</defs>
</svg>
