<svg width="34" height="34" viewBox="0 0 34 34" fill="none" xmlns="http://www.w3.org/2000/svg">
<g id="5e4aa0b13e4de572f8d00bf1_Linkedin.svg" clip-path="url(#clip0_10_474)">
<path id="Vector" d="M7.95395 33.8311H0.905083V12.6844H7.95395V33.8311ZM4.42952 8.69009C2.07989 8.69009 0.200195 6.81039 0.200195 4.46077C0.200195 2.11114 2.07989 0.231445 4.42952 0.231445C6.77914 0.231445 8.65884 2.11114 8.65884 4.46077C8.65884 6.81039 6.77914 8.69009 4.42952 8.69009ZM33.7998 33.8311H26.751V21.3781C26.751 19.4984 25.1061 17.8536 23.2265 17.8536C21.3468 17.8536 19.702 19.4984 19.702 21.3781V33.8311H12.6532V12.6844H19.702V15.504C20.8769 13.6242 23.4614 12.2145 25.5762 12.2145C30.0404 12.2145 33.7998 15.9739 33.7998 20.4382V33.8311Z" fill="white"/>
</g>
<defs>
<clipPath id="clip0_10_474">
<rect width="33.5996" height="33.5996" fill="white" transform="translate(0.200195 0.231445)"/>
</clipPath>
</defs>
</svg>
